# xmcd
#
# Track frame offsets:
#   150
#   16062
#   33948
#   52032
#   72365
#   91979
#   109206
#   121799
#   140811
#   161945
#   178513
#   194431
#   212254
#   230378
#   249993
#   267162
#   279753
#   298854
#   319981
#
# Disc length: 4485 seconds
#
# Revision: 0
# Processed by: cddbd v1.5.1PL0 Copyright (c) Steve Scherf et al.
# Submitted via: uFREEDB ActiveX Control 1.5
#
DISCID=13118313
DTITLE=Graziela - É Tempo de Cantar
DYEAR=1900
DGENRE=Gospel and Religious
TTITLE0=O Campeão
TTITLE1=Vitória
TTITLE2=Só Depende de Você
TTITLE3=Glória, Glória
TTITLE4=É Tempo de Cantar
TTITLE5=Ao Que Vencer
TTITLE6=Renovo
TTITLE7=Não Vou Calar
TTITLE8=Linda Cidade
TTITLE9=Presença de Deus
TTITLE10=
TTITLE11=
TTITLE12=
TTITLE13=
TTITLE14=
TTITLE15=
TTITLE16=
TTITLE17=
TTITLE18=
EXTD=
EXTT0=
EXTT1=
EXTT2=
EXTT3=
EXTT4=
EXTT5=
EXTT6=
EXTT7=
EXTT8=
EXTT9=
EXTT10=
EXTT11=
EXTT12=
EXTT13=
EXTT14=
EXTT15=
EXTT16=
EXTT17=
EXTT18=
PLAYORDER=
